<?xml version="1.0" standalone="no"?>
<!DOCTYPE svg PUBLIC "-//W3C//DTD SVG 20010904//EN"
 "http://www.w3.org/TR/2001/REC-SVG-20010904/DTD/svg10.dtd">
<svg version="1.0" xmlns="http://www.w3.org/2000/svg"
 width="908.000000pt" height="681.000000pt" viewBox="0 0 908.000000 681.000000"
 preserveAspectRatio="xMidYMid meet">

<g transform="translate(0.000000,681.000000) scale(0.100000,-0.100000)"
fill="#000000" stroke="none">
<path d="M0 3405 l0 -3405 4540 0 4540 0 0 3405 0 3405 -4540 0 -4540 0 0
-3405z m6714 1839 c3 -9 6 -45 6 -80 0 -50 -3 -64 -15 -64 -12 0 -15 16 -15
80 0 75 10 101 24 64z m236 -56 c-1 -7 -27 -42 -60 -78 -47 -53 -61 -63 -71
-52 -11 10 -1 25 51 77 65 65 80 76 80 53z m-377 -86 c20 -20 25 -32 17 -37
-13 -8 -80 52 -80 72 0 18 27 4 63 -35z m190 -77 c23 -17 46 -81 39 -107 -2
-10 -18 -32 -33 -48 -17 -17 -29 -39 -29 -55 0 -41 -40 -192 -70 -266 -56
-139 -184 -301 -311 -394 -80 -59 -228 -130 -324 -156 -75 -21 -108 -23 -487
-27 l-407 -4 -4 -1001 c-3 -916 -4 -1008 -20 -1067 -30 -110 -47 -152 -93
-236 -111 -198 -312 -352 -542 -415 -62 -17 -116 -22 -279 -26 -186 -5 -203
-4 -203 12 0 13 5 15 23 8 12 -4 92 -7 178 -5 171 2 302 27 390 73 24 13 46
24 49 24 23 6 39 19 34 26 -3 5 -2 8 3 7 12 -4 103 43 103 53 0 5 6 9 13 9 21
0 50 37 41 51 -5 8 -2 11 8 7 10 -4 19 5 27 29 9 23 16 31 21 23 5 -8 10 -3
14 14 3 14 6 29 5 32 0 4 5 11 13 15 10 7 9 9 -5 9 -9 0 -26 -15 -37 -32 -11
-18 -20 -29 -20 -25 0 5 -24 -12 -52 -38 -135 -121 -330 -207 -462 -204 l-51
2 40 7 c93 19 191 42 205 50 12 7 14 50 11 292 -2 262 -4 284 -22 304 -25 26
-24 65 1 97 16 20 20 40 20 101 l0 77 -70 -70 -70 -70 0 -218 c0 -198 2 -218
19 -237 33 -37 35 -63 7 -91 -32 -32 -59 -32 -85 2 -24 29 -21 55 10 89 17 19
19 39 19 243 l0 224 84 91 83 91 -5 182 c-4 143 -8 185 -19 195 -21 17 -32 -6
-34 -72 -2 -65 -21 161 -22 260 -2 156 17 563 24 520 4 -25 8 -83 9 -130 2
-97 10 -130 27 -108 7 8 13 158 17 443 3 237 9 473 13 525 6 86 8 91 14 50 4
-25 8 -112 9 -195 l1 -150 29 79 c45 120 146 294 219 375 19 21 28 38 22 44
-22 22 32 122 82 152 30 18 135 26 140 11 2 -5 43 7 93 26 174 70 196 73 604
69 l365 -3 23 31 c17 23 30 31 54 31 68 0 102 -78 56 -127 -31 -33 -73 -30
-108 7 l-28 30 -249 0 c-421 -1 -560 -17 -701 -80 -51 -24 -62 -33 -58 -48 4
-11 -5 -36 -24 -65 -32 -47 -35 -49 -170 -87 -25 -8 -62 -30 -83 -49 -81 -76
-173 -241 -224 -401 -26 -84 -27 -88 -29 -415 -1 -204 1 -309 6 -275 15 97 39
223 45 228 3 3 5 -28 6 -69 1 -190 10 -317 24 -355 13 -34 14 -50 4 -85 -20
-79 -27 -152 -30 -294 l-2 -140 -9 95 c-5 52 -13 103 -19 112 -5 10 -9 32 -10
50 0 18 -4 42 -8 53 -4 10 -11 -127 -14 -305 -6 -309 -5 -326 12 -340 11 -8
22 -29 26 -47 5 -25 2 -36 -17 -55 -22 -22 -23 -28 -25 -253 -2 -126 -5 -251
-7 -277 -2 -28 1 -48 7 -48 19 0 121 62 171 104 77 65 154 164 202 261 81 164
78 118 81 1108 3 588 0 877 -7 877 -12 0 -54 -82 -83 -160 -18 -49 -21 -85
-25 -313 l-4 -258 26 -20 c35 -28 35 -71 0 -98 -34 -26 -54 -26 -82 -1 -31 29
-29 75 3 96 l25 16 0 247 c0 316 16 384 116 522 l34 47 0 131 0 131 438 0
c473 -1 488 1 645 60 90 34 212 122 294 211 l22 24 -414 -3 -414 -3 -31 -30
c-25 -25 -36 -30 -58 -24 -41 10 -62 34 -62 72 0 70 87 102 128 46 l20 -28
389 0 c421 0 454 3 501 53 54 58 142 290 142 373 -1 37 -33 85 -50 74 -6 -4
-48 -14 -93 -22 -62 -11 -213 -17 -622 -23 -589 -8 -606 -10 -802 -75 -86 -29
-244 -110 -338 -172 -291 -195 -528 -555 -599 -908 -32 -163 -36 -300 -36
-1349 0 -577 -3 -1047 -6 -1043 -3 3 -8 174 -11 379 -3 205 -9 380 -14 388 -6
11 -9 3 -10 -25 -1 -38 -2 -39 -8 -10 l-7 30 -5 -33 c-4 -22 -2 -32 8 -32 8 0
13 -11 13 -27 0 -23 -2 -25 -11 -13 -8 11 -9 5 -5 -25 3 -23 2 -34 -3 -27 -14
22 -21 -96 -21 -336 0 -157 -3 -223 -10 -216 -8 8 -10 360 -7 1120 l3 1109 27
121 c57 260 146 454 297 654 57 74 181 207 230 245 14 11 46 36 70 55 120 95
258 167 432 224 178 59 246 64 908 70 327 3 602 6 610 8 8 2 30 18 49 36 26
26 41 32 75 32 22 0 49 -7 59 -15z m-1838 -64 c-3 -6 -12 -11 -19 -11 -16 0
-185 -87 -241 -123 -183 -120 -381 -312 -485 -470 -60 -91 -150 -261 -183
-346 l-16 -43 -388 5 c-375 4 -391 5 -484 30 -52 13 -130 41 -172 61 -136 65
-292 198 -378 322 -86 125 -152 306 -163 449 -4 44 -9 90 -12 102 l-4 23 897
2 c494 2 1068 4 1277 6 269 3 376 0 371 -7z m2091 -16 c-28 -21 -166 -21 -166
0 0 12 17 15 93 15 83 -1 90 -2 73 -15z m-418 -115 c-5 -15 -150 -160 -160
-160 -22 0 -1 31 64 97 64 65 106 92 96 63z m277 -31 c25 -28 34 -44 27 -51
-12 -12 -92 57 -92 79 0 25 28 13 65 -28z m-1053 -26 c21 -19 24 -71 4 -98
-20 -28 -85 -26 -104 3 -14 21 -21 22 -171 22 -205 0 -313 -19 -485 -84 -37
-14 -73 -26 -79 -26 -27 0 73 62 143 89 122 46 220 61 407 61 164 0 165 0 185
25 23 30 72 34 100 8z m-912 -222 c0 -14 -28 -33 -39 -27 -16 10 -1 36 20 36
10 0 19 -4 19 -9z m-161 -107 c45 -58 9 -127 -64 -122 -35 2 -42 -3 -92 -57
-65 -72 -155 -204 -181 -265 -20 -47 -72 -129 -72 -114 0 25 34 113 67 177 37
69 125 196 185 265 15 18 28 44 28 58 0 74 86 113 129 58z m1200 -190 c12 -15
21 -32 21 -39 0 -7 -9 -24 -21 -39 -27 -34 -72 -35 -103 -1 l-23 25 -311 0
c-273 0 -311 2 -306 15 5 13 50 15 314 15 l308 0 16 25 c23 35 77 35 105 -1z
m-721 4 c-3 -7 -29 -22 -60 -34 -155 -60 -290 -220 -359 -424 -39 -119 -51
-217 -47 -397 2 -127 6 -154 21 -170 22 -25 22 -45 -3 -90 -18 -34 -20 -57
-20 -218 l0 -180 78 -89 77 -89 5 -276 c3 -152 4 -282 2 -288 -3 -7 -10 -13
-18 -13 -12 0 -14 47 -14 279 l0 280 -79 89 -79 89 -4 194 c-3 185 -5 196 -26
217 -30 30 -30 84 1 104 21 15 22 22 28 234 5 184 10 231 28 294 68 230 222
427 380 485 47 18 94 19 89 3z m-819 -785 c1 -148 2 -153 26 -177 14 -14 25
-34 25 -46 0 -12 -11 -32 -25 -46 l-25 -25 0 -416 0 -415 -80 -82 -80 -82 0
-126 c0 -68 -3 -181 -7 -249 -10 -184 -21 -100 -23 167 l-1 221 80 84 80 84 1
406 c0 391 -1 407 -20 432 -11 14 -20 36 -20 50 0 13 9 34 20 47 18 21 20 37
20 170 0 81 3 196 8 256 l7 109 6 -105 c4 -58 7 -173 8 -257z m-86 311 c3 -4
2 -16 -4 -26 -13 -24 -35 -9 -26 16 7 17 19 21 30 10z m-73 -688 c0 -291 2
-328 18 -355 16 -30 16 -32 0 -62 -12 -19 -18 -52 -18 -89 0 -50 4 -63 25 -84
44 -45 21 -106 -40 -106 -62 0 -86 67 -39 111 24 23 25 28 19 89 -3 36 -6 83
-6 105 1 22 4 192 7 378 4 284 7 337 20 337 12 0 14 -49 14 -324z m533 -618
c30 -24 32 -64 4 -92 -24 -24 -25 -30 -29 -188 -2 -103 -8 -170 -15 -183 -10
-16 -12 15 -13 159 0 178 0 179 -25 202 -29 27 -33 69 -8 96 19 21 62 24 86 6z
m54 -274 c1 -5 -2 -16 -7 -24 -12 -20 -35 2 -26 25 6 17 27 16 33 -1z m-7
-115 c0 -21 -4 -39 -10 -39 -5 0 -10 21 -10 46 0 27 4 43 10 39 6 -3 10 -24
10 -46z m0 -87 c0 -10 -16 -34 -36 -53 l-35 -34 10 28 c13 33 43 76 54 77 4 0
7 -8 7 -18z m-77 -149 c8 -13 -1 -43 -14 -43 -5 0 -8 30 -8 68 1 57 2 61 8 27
4 -22 10 -45 14 -52z m-523 -543 c10 -7 -7 -9 -55 -8 -61 1 -65 2 -30 8 59 11
69 11 85 0z"/>
<path d="M6198 4589 c-10 -5 -18 -21 -18 -35 0 -33 37 -48 63 -26 21 19 22 36
1 56 -18 19 -23 19 -46 5z"/>
<path d="M5506 4414 c-9 -8 -16 -19 -16 -22 0 -12 31 -52 40 -52 13 0 40 30
40 45 0 15 -27 45 -40 45 -5 0 -16 -7 -24 -16z"/>
<path d="M5060 2290 c0 -40 3 -70 7 -67 7 7 5 128 -2 136 -3 2 -5 -29 -5 -69z"/>
<path d="M4064 2209 c-3 -6 -1 -16 5 -22 8 -8 11 -5 11 11 0 24 -5 28 -16 11z"/>
<path d="M5061 2070 c-1 -14 -3 -50 -6 -80 -5 -44 -3 -50 5 -31 17 39 21 85
11 112 l-10 24 0 -25z"/>
<path d="M5006 1799 c-16 -41 -33 -79 -38 -85 -4 -6 -6 -18 -3 -27 5 -12 10
-12 29 7 16 16 20 27 14 43 -5 15 -2 27 7 36 8 8 11 17 8 21 -4 3 -1 17 6 30
8 13 11 30 9 36 -2 7 -17 -21 -32 -61z"/>
<path d="M2495 4818 c26 -156 81 -289 166 -401 59 -78 99 -119 153 -159 l39
-28 409 0 410 0 28 30 c37 39 80 41 109 4 28 -35 26 -69 -4 -99 -33 -34 -70
-32 -104 4 l-28 30 -391 3 c-214 2 -385 -1 -379 -5 31 -21 128 -66 182 -85
115 -39 232 -44 795 -33 34 1 37 4 65 69 15 37 46 98 67 135 21 38 38 73 38
78 0 5 -136 9 -324 9 l-324 0 -30 -30 c-36 -35 -60 -38 -95 -10 -34 27 -41 53
-23 88 27 52 83 57 124 12 l28 -30 104 4 c58 2 211 4 340 5 l235 1 43 58 42
57 -183 3 c-156 2 -184 0 -193 -13 -7 -9 -27 -18 -46 -21 -39 -7 -64 11 -74
52 -16 64 74 105 117 54 15 -18 36 -20 216 -25 l199 -5 58 65 57 65 -389 0
c-214 0 -469 3 -568 6 l-179 6 -17 -31 c-19 -34 -51 -41 -91 -20 -30 16 -37
28 -37 66 0 22 8 38 26 52 36 29 57 26 99 -10 l36 -32 582 5 c327 3 589 9 598
14 24 15 129 96 129 100 0 2 -455 4 -1011 4 l-1011 0 7 -42z m329 -214 c9 -8
16 -20 16 -25 0 -13 623 -12 637 2 6 6 21 9 34 7 19 -2 24 -9 24 -33 0 -28 -2
-30 -30 -26 -16 2 -172 5 -346 8 l-316 4 -11 -26 c-9 -19 -19 -25 -43 -25 -18
0 -41 7 -51 17 -22 20 -23 70 -1 95 20 22 66 24 87 2z m302 -205 c3 -6 0 -15
-7 -20 -18 -11 -21 -11 -39 1 -13 9 -13 11 0 20 20 13 37 13 46 -1z"/>
<path d="M3076 4742 c-9 -28 3 -51 31 -58 31 -8 45 6 41 42 -2 24 -8 29 -35
32 -24 2 -33 -1 -37 -16z"/>
<path d="M2500 4539 c0 -5 5 -7 10 -4 6 3 10 8 10 11 0 2 -4 4 -10 4 -5 0 -10
-5 -10 -11z"/>
<path d="M3292 4418 c-21 -21 -14 -57 14 -70 23 -11 29 -10 45 11 17 21 18 26
6 45 -17 25 -47 32 -65 14z"/>
<path d="M2666 4342 c-3 -4 4 -9 15 -9 23 -2 25 3 4 10 -8 4 -16 3 -19 -1z"/>
<path d="M2660 4311 c0 -6 4 -13 10 -16 6 -3 7 1 4 9 -7 18 -14 21 -14 7z"/>
<path d="M2720 4301 c0 -10 19 -25 25 -20 1 2 -3 10 -11 17 -8 7 -14 8 -14 3z"/>
<path d="M2727 4257 c-4 -11 1 -21 16 -28 19 -10 20 -10 11 2 -6 8 -13 21 -16
28 -3 12 -6 12 -11 -2z"/>
<path d="M3725 4240 c-17 -18 -17 -21 -1 -45 19 -29 38 -32 60 -9 22 21 20 40
-6 58 -29 20 -31 20 -53 -4z"/>
<path d="M4210 2485 c-24 -29 8 -75 44 -62 30 12 14 77 -20 77 -6 0 -17 -7
-24 -15z"/>
<path d="M4725 2456 c-20 -15 -17 -45 7 -60 24 -15 53 13 44 42 -9 26 -30 34
-51 18z"/>
</g>
</svg>
